<svg xmlns="http://www.w3.org/2000/svg" width="64" height="64" viewBox="0 0 24 24" role="img" aria-label="Light bulb icon">
  <path
    d="M9 21a1 1 0 0 1-1-1v-1.29c-2.92-1.62-4-5.35-2.38-8.27 1.62-2.91 5.35-3.97 8.26-2.35 2.92 1.62 3.97 5.35 2.35 8.27A6 6 0 0 1 14 18.71V20a1 1 0 0 1-1 1Zm4-2v-1.13c0-.37.2-.72.52-.9a4 4 0 0 0 1.84-2.67c.4-2.2-1.08-4.32-3.28-4.72a4 4 0 0 0-4.72 3.28 3.98 3.98 0 0 0 1.84 4.11c.33.18.52.53.52.9V19Zm-2.38-.5h.76a.62.62 0 0 0 .62-.62v-.04a.62.62 0 0 0-.62-.62h-.76a.62.62 0 0 0-.62.62v.04c0 .34.28.62.62.62Z"
    fill="#ffffff"
  />
</svg>
