<svg xmlns="http://www.w3.org/2000/svg" width="64" height="64" viewBox="0 0 24 24" role="img" aria-label="Radiator icon">
  <path
    d="M7.95 3 6.53 5.19 7.95 7.4h-.01L5.95 10.5 4.22 9.6 5.64 7.39 4.22 5.19 6.22 2.09 7.95 3Zm6-.11-1.42 2.21 1.42 2.2h-.01L11.95 10.4 10.22 9.5 11.64 7.3l-1.42-2.2 2-3.1 1.73.89ZM20 2.89l-1.44 2.21L20 7.3V7.31L18 10.4l-1.75-.9 1.42-2.2-1.42-2.2 2-3.1 1.75.89ZM2 22v-8a2 2 0 0 1 2-2h16a2 2 0 0 1 2 2v8h-2v-2H4v2H2Zm4-8a1 1 0 0 0-1 1v2a1 1 0 0 0 2 0v-2a1 1 0 0 0-1-1Zm4 0a1 1 0 0 0-1 1v2a1 1 0 0 0 2 0v-2a1 1 0 0 0-1-1Zm4 0a1 1 0 0 0-1 1v2a1 1 0 0 0 2 0v-2a1 1 0 0 0-1-1Zm4 0a1 1 0 0 0-1 1v2a1 1 0 0 0 2 0v-2a1 1 0 0 0-1-1Z"
    fill="currentColor"
  />
</svg>
